<svg width="655" height="89" viewBox="0 0 655 89" fill="none" xmlns="http://www.w3.org/2000/svg">
<path d="M650.338 0H4.66192C2.08721 0 0 1.79086 0 4V83.3519C0 85.561 2.08721 87.3519 4.66192 87.3519H650.338C652.913 87.3519 655 85.561 655 83.3519V4C655 1.79086 652.913 0 650.338 0Z" fill="#F8F9FA"/>
<path d="M0 4C0 1.79087 2.10387 0 4.67858 0V87.3519C2.10387 87.3519 0 85.561 0 83.3519V4Z" fill="#E9ECEF"/>
<path d="M605.875 0H650.338C652.913 0 655 1.79086 655 4V85C655 87.2091 652.913 89 650.338 89H605.875V0Z" fill="#F8F9FA"/>
<path d="M402.357 24.7222H17.5444V37.9074H402.357V24.7222Z" fill="#E9ECEF"/>
<path d="M106.437 51.0925H17.5444V64.2777H106.437V51.0925Z" fill="#E9ECEF"/>
</svg>
