<svg width="749" height="575" viewBox="0 0 749 575" fill="none" xmlns="http://www.w3.org/2000/svg">
<rect width="749" height="575" fill="#D9D9D9"/>
<path d="M192.057 254.545L196.599 268.284H196.778L201.312 254.545H204.79L198.636 272H194.733L188.588 254.545H192.057ZM211.256 272.256C209.978 272.256 208.87 271.974 207.933 271.412C206.995 270.849 206.268 270.062 205.751 269.051C205.239 268.04 204.984 266.858 204.984 265.506C204.984 264.153 205.239 262.969 205.751 261.952C206.268 260.935 206.995 260.145 207.933 259.582C208.87 259.02 209.978 258.739 211.256 258.739C212.535 258.739 213.643 259.02 214.58 259.582C215.518 260.145 216.242 260.935 216.754 261.952C217.271 262.969 217.529 264.153 217.529 265.506C217.529 266.858 217.271 268.04 216.754 269.051C216.242 270.062 215.518 270.849 214.58 271.412C213.643 271.974 212.535 272.256 211.256 272.256ZM211.273 269.784C211.967 269.784 212.546 269.594 213.012 269.213C213.478 268.827 213.825 268.31 214.052 267.662C214.285 267.014 214.401 266.293 214.401 265.497C214.401 264.696 214.285 263.972 214.052 263.324C213.825 262.67 213.478 262.151 213.012 261.764C212.546 261.378 211.967 261.185 211.273 261.185C210.563 261.185 209.972 261.378 209.501 261.764C209.035 262.151 208.685 262.67 208.452 263.324C208.225 263.972 208.112 264.696 208.112 265.497C208.112 266.293 208.225 267.014 208.452 267.662C208.685 268.31 209.035 268.827 209.501 269.213C209.972 269.594 210.563 269.784 211.273 269.784ZM225.858 272.256C224.551 272.256 223.429 271.969 222.491 271.395C221.56 270.821 220.841 270.028 220.335 269.017C219.835 268 219.585 266.83 219.585 265.506C219.585 264.176 219.841 263.003 220.352 261.986C220.864 260.963 221.585 260.168 222.517 259.599C223.455 259.026 224.563 258.739 225.841 258.739C226.903 258.739 227.844 258.935 228.662 259.327C229.486 259.713 230.142 260.261 230.631 260.972C231.119 261.676 231.398 262.5 231.466 263.443H228.517C228.398 262.812 228.114 262.287 227.665 261.866C227.222 261.44 226.628 261.227 225.884 261.227C225.253 261.227 224.699 261.398 224.222 261.739C223.744 262.074 223.372 262.557 223.105 263.188C222.844 263.818 222.713 264.574 222.713 265.455C222.713 266.347 222.844 267.114 223.105 267.756C223.366 268.392 223.733 268.884 224.205 269.23C224.682 269.571 225.241 269.741 225.884 269.741C226.338 269.741 226.744 269.656 227.102 269.486C227.466 269.31 227.77 269.057 228.014 268.727C228.259 268.398 228.426 267.997 228.517 267.526H231.466C231.392 268.452 231.119 269.273 230.648 269.989C230.176 270.699 229.534 271.256 228.722 271.659C227.909 272.057 226.955 272.256 225.858 272.256ZM239.795 272.256C238.482 272.256 237.349 271.983 236.394 271.438C235.445 270.886 234.715 270.108 234.204 269.102C233.692 268.091 233.437 266.901 233.437 265.531C233.437 264.185 233.692 263.003 234.204 261.986C234.721 260.963 235.442 260.168 236.369 259.599C237.295 259.026 238.383 258.739 239.633 258.739C240.44 258.739 241.201 258.869 241.917 259.131C242.638 259.386 243.275 259.784 243.826 260.324C244.383 260.864 244.82 261.551 245.138 262.386C245.457 263.216 245.616 264.205 245.616 265.352V266.298H234.886V264.219H242.658C242.653 263.628 242.525 263.102 242.275 262.642C242.025 262.176 241.675 261.81 241.227 261.543C240.783 261.276 240.266 261.142 239.675 261.142C239.045 261.142 238.491 261.295 238.013 261.602C237.536 261.903 237.164 262.301 236.897 262.795C236.636 263.284 236.502 263.821 236.496 264.406V266.222C236.496 266.983 236.636 267.636 236.914 268.182C237.192 268.722 237.582 269.136 238.082 269.426C238.582 269.71 239.167 269.852 239.837 269.852C240.286 269.852 240.692 269.79 241.056 269.665C241.42 269.534 241.735 269.344 242.002 269.094C242.269 268.844 242.471 268.534 242.607 268.165L245.488 268.489C245.306 269.25 244.96 269.915 244.448 270.483C243.942 271.045 243.295 271.483 242.505 271.795C241.715 272.102 240.812 272.256 239.795 272.256ZM241.278 257.341L239.548 255.159L237.817 257.341H235.116V257.222L238.346 253.54H240.758L243.979 257.222V257.341H241.278ZM257.946 272.264C257.116 272.264 256.369 272.116 255.705 271.821C255.045 271.52 254.523 271.077 254.136 270.491C253.756 269.906 253.565 269.185 253.565 268.327C253.565 267.588 253.702 266.977 253.974 266.494C254.247 266.011 254.619 265.625 255.091 265.335C255.563 265.045 256.094 264.827 256.685 264.679C257.281 264.526 257.898 264.415 258.534 264.347C259.301 264.267 259.923 264.196 260.401 264.134C260.878 264.065 261.224 263.963 261.44 263.827C261.662 263.685 261.773 263.466 261.773 263.17V263.119C261.773 262.477 261.582 261.98 261.202 261.628C260.821 261.276 260.273 261.099 259.557 261.099C258.801 261.099 258.202 261.264 257.759 261.594C257.321 261.923 257.026 262.312 256.872 262.761L253.991 262.352C254.219 261.557 254.594 260.892 255.116 260.358C255.639 259.818 256.278 259.415 257.034 259.148C257.79 258.875 258.625 258.739 259.54 258.739C260.17 258.739 260.798 258.812 261.423 258.96C262.048 259.108 262.619 259.352 263.136 259.693C263.653 260.028 264.068 260.486 264.381 261.065C264.699 261.645 264.858 262.369 264.858 263.239V272H261.892V270.202H261.79C261.602 270.565 261.338 270.906 260.997 271.224C260.662 271.537 260.239 271.79 259.727 271.983C259.222 272.17 258.628 272.264 257.946 272.264ZM258.747 269.997C259.366 269.997 259.903 269.875 260.358 269.631C260.813 269.381 261.162 269.051 261.406 268.642C261.656 268.233 261.781 267.787 261.781 267.304V265.761C261.685 265.841 261.52 265.915 261.287 265.983C261.06 266.051 260.804 266.111 260.52 266.162C260.236 266.213 259.955 266.259 259.676 266.298C259.398 266.338 259.156 266.372 258.952 266.401C258.491 266.463 258.08 266.565 257.716 266.707C257.352 266.849 257.065 267.048 256.855 267.304C256.645 267.554 256.54 267.878 256.54 268.276C256.54 268.844 256.747 269.273 257.162 269.562C257.577 269.852 258.105 269.997 258.747 269.997ZM267.96 272V258.909H271.045V272H267.96ZM269.511 257.051C269.023 257.051 268.602 256.889 268.25 256.565C267.898 256.236 267.722 255.841 267.722 255.381C267.722 254.915 267.898 254.52 268.25 254.196C268.602 253.866 269.023 253.702 269.511 253.702C270.006 253.702 270.426 253.866 270.773 254.196C271.125 254.52 271.301 254.915 271.301 255.381C271.301 255.841 271.125 256.236 270.773 256.565C270.426 256.889 270.006 257.051 269.511 257.051ZM277.303 264.33V272H274.218V258.909H277.167V261.134H277.32C277.621 260.401 278.102 259.818 278.761 259.386C279.425 258.955 280.246 258.739 281.224 258.739C282.127 258.739 282.914 258.932 283.585 259.318C284.261 259.705 284.783 260.264 285.153 260.997C285.528 261.73 285.712 262.619 285.707 263.665V272H282.621V264.142C282.621 263.267 282.394 262.582 281.94 262.088C281.491 261.594 280.869 261.347 280.073 261.347C279.533 261.347 279.053 261.466 278.633 261.705C278.218 261.937 277.891 262.276 277.653 262.719C277.42 263.162 277.303 263.699 277.303 264.33ZM293.701 272.23C292.673 272.23 291.752 271.966 290.94 271.438C290.127 270.909 289.485 270.142 289.013 269.136C288.542 268.131 288.306 266.909 288.306 265.472C288.306 264.017 288.545 262.79 289.022 261.79C289.505 260.784 290.156 260.026 290.974 259.514C291.792 258.997 292.704 258.739 293.71 258.739C294.477 258.739 295.107 258.869 295.602 259.131C296.096 259.386 296.488 259.696 296.778 260.06C297.067 260.418 297.292 260.756 297.451 261.074H297.579V254.545H300.673V272H297.638V269.938H297.451C297.292 270.256 297.062 270.594 296.761 270.952C296.46 271.304 296.062 271.605 295.567 271.855C295.073 272.105 294.451 272.23 293.701 272.23ZM294.562 269.699C295.215 269.699 295.772 269.523 296.232 269.17C296.692 268.812 297.042 268.315 297.281 267.679C297.519 267.043 297.638 266.301 297.638 265.455C297.638 264.608 297.519 263.872 297.281 263.247C297.048 262.622 296.701 262.136 296.241 261.79C295.786 261.443 295.227 261.27 294.562 261.27C293.874 261.27 293.3 261.449 292.84 261.807C292.38 262.165 292.033 262.659 291.8 263.29C291.567 263.92 291.451 264.642 291.451 265.455C291.451 266.273 291.567 267.003 291.8 267.645C292.039 268.281 292.388 268.784 292.849 269.153C293.315 269.517 293.886 269.699 294.562 269.699ZM307.727 272.264C306.898 272.264 306.151 272.116 305.486 271.821C304.827 271.52 304.304 271.077 303.918 270.491C303.537 269.906 303.347 269.185 303.347 268.327C303.347 267.588 303.483 266.977 303.756 266.494C304.028 266.011 304.401 265.625 304.872 265.335C305.344 265.045 305.875 264.827 306.466 264.679C307.063 264.526 307.679 264.415 308.315 264.347C309.082 264.267 309.705 264.196 310.182 264.134C310.659 264.065 311.006 263.963 311.222 263.827C311.443 263.685 311.554 263.466 311.554 263.17V263.119C311.554 262.477 311.364 261.98 310.983 261.628C310.602 261.276 310.054 261.099 309.338 261.099C308.582 261.099 307.983 261.264 307.54 261.594C307.102 261.923 306.807 262.312 306.653 262.761L303.773 262.352C304 261.557 304.375 260.892 304.898 260.358C305.42 259.818 306.06 259.415 306.815 259.148C307.571 258.875 308.406 258.739 309.321 258.739C309.952 258.739 310.58 258.812 311.205 258.96C311.83 259.108 312.401 259.352 312.918 259.693C313.435 260.028 313.849 260.486 314.162 261.065C314.48 261.645 314.639 262.369 314.639 263.239V272H311.673V270.202H311.571C311.384 270.565 311.119 270.906 310.778 271.224C310.443 271.537 310.02 271.79 309.509 271.983C309.003 272.17 308.409 272.264 307.727 272.264ZM308.528 269.997C309.148 269.997 309.685 269.875 310.139 269.631C310.594 269.381 310.943 269.051 311.188 268.642C311.438 268.233 311.562 267.787 311.562 267.304V265.761C311.466 265.841 311.301 265.915 311.068 265.983C310.841 266.051 310.585 266.111 310.301 266.162C310.017 266.213 309.736 266.259 309.457 266.298C309.179 266.338 308.938 266.372 308.733 266.401C308.273 266.463 307.861 266.565 307.497 266.707C307.134 266.849 306.847 267.048 306.636 267.304C306.426 267.554 306.321 267.878 306.321 268.276C306.321 268.844 306.528 269.273 306.943 269.562C307.358 269.852 307.886 269.997 308.528 269.997ZM326.78 264.33V272H323.695V258.909H326.643V261.134H326.797C327.098 260.401 327.578 259.818 328.237 259.386C328.902 258.955 329.723 258.739 330.7 258.739C331.604 258.739 332.391 258.932 333.061 259.318C333.737 259.705 334.26 260.264 334.629 260.997C335.004 261.73 335.189 262.619 335.183 263.665V272H332.098V264.142C332.098 263.267 331.871 262.582 331.416 262.088C330.967 261.594 330.345 261.347 329.55 261.347C329.01 261.347 328.53 261.466 328.109 261.705C327.695 261.937 327.368 262.276 327.129 262.719C326.896 263.162 326.78 263.699 326.78 264.33ZM342.087 272.264C341.257 272.264 340.51 272.116 339.845 271.821C339.186 271.52 338.663 271.077 338.277 270.491C337.896 269.906 337.706 269.185 337.706 268.327C337.706 267.588 337.842 266.977 338.115 266.494C338.388 266.011 338.76 265.625 339.232 265.335C339.703 265.045 340.234 264.827 340.825 264.679C341.422 264.526 342.038 264.415 342.675 264.347C343.442 264.267 344.064 264.196 344.541 264.134C345.018 264.065 345.365 263.963 345.581 263.827C345.803 263.685 345.913 263.466 345.913 263.17V263.119C345.913 262.477 345.723 261.98 345.342 261.628C344.962 261.276 344.413 261.099 343.697 261.099C342.942 261.099 342.342 261.264 341.899 261.594C341.462 261.923 341.166 262.312 341.013 262.761L338.132 262.352C338.359 261.557 338.734 260.892 339.257 260.358C339.78 259.818 340.419 259.415 341.175 259.148C341.93 258.875 342.766 258.739 343.68 258.739C344.311 258.739 344.939 258.812 345.564 258.96C346.189 259.108 346.76 259.352 347.277 259.693C347.794 260.028 348.209 260.486 348.521 261.065C348.839 261.645 348.999 262.369 348.999 263.239V272H346.033V270.202H345.93C345.743 270.565 345.479 270.906 345.138 271.224C344.803 271.537 344.379 271.79 343.868 271.983C343.362 272.17 342.768 272.264 342.087 272.264ZM342.888 269.997C343.507 269.997 344.044 269.875 344.499 269.631C344.953 269.381 345.303 269.051 345.547 268.642C345.797 268.233 345.922 267.787 345.922 267.304V265.761C345.825 265.841 345.661 265.915 345.428 265.983C345.2 266.051 344.945 266.111 344.661 266.162C344.376 266.213 344.095 266.259 343.817 266.298C343.538 266.338 343.297 266.372 343.092 266.401C342.632 266.463 342.22 266.565 341.857 266.707C341.493 266.849 341.206 267.048 340.996 267.304C340.786 267.554 340.68 267.878 340.68 268.276C340.68 268.844 340.888 269.273 341.303 269.562C341.717 269.852 342.246 269.997 342.888 269.997ZM341.311 257.315L339.445 257.273C339.445 256.261 339.706 255.469 340.229 254.895C340.751 254.321 341.396 254.034 342.163 254.034C342.533 254.034 342.854 254.097 343.126 254.222C343.399 254.341 343.649 254.48 343.876 254.639C344.109 254.798 344.337 254.94 344.558 255.065C344.78 255.185 345.024 255.244 345.291 255.244C345.615 255.244 345.871 255.122 346.058 254.878C346.251 254.634 346.351 254.321 346.357 253.94L348.189 254.017C348.183 255.034 347.919 255.824 347.396 256.386C346.874 256.943 346.232 257.224 345.47 257.23C345.061 257.236 344.717 257.176 344.439 257.051C344.161 256.926 343.916 256.784 343.706 256.625C343.501 256.466 343.294 256.327 343.084 256.207C342.874 256.082 342.626 256.02 342.342 256.02C342.041 256.02 341.794 256.139 341.601 256.378C341.408 256.616 341.311 256.929 341.311 257.315ZM357.811 272.256C356.533 272.256 355.425 271.974 354.487 271.412C353.55 270.849 352.822 270.062 352.305 269.051C351.794 268.04 351.538 266.858 351.538 265.506C351.538 264.153 351.794 262.969 352.305 261.952C352.822 260.935 353.55 260.145 354.487 259.582C355.425 259.02 356.533 258.739 357.811 258.739C359.089 258.739 360.197 259.02 361.135 259.582C362.072 260.145 362.797 260.935 363.308 261.952C363.825 262.969 364.084 264.153 364.084 265.506C364.084 266.858 363.825 268.04 363.308 269.051C362.797 270.062 362.072 270.849 361.135 271.412C360.197 271.974 359.089 272.256 357.811 272.256ZM357.828 269.784C358.521 269.784 359.101 269.594 359.567 269.213C360.033 268.827 360.379 268.31 360.607 267.662C360.839 267.014 360.956 266.293 360.956 265.497C360.956 264.696 360.839 263.972 360.607 263.324C360.379 262.67 360.033 262.151 359.567 261.764C359.101 261.378 358.521 261.185 357.828 261.185C357.118 261.185 356.527 261.378 356.055 261.764C355.589 262.151 355.24 262.67 355.007 263.324C354.78 263.972 354.666 264.696 354.666 265.497C354.666 266.293 354.78 267.014 355.007 267.662C355.24 268.31 355.589 268.827 356.055 269.213C356.527 269.594 357.118 269.784 357.828 269.784ZM379.192 258.909V261.295H371.667V258.909H379.192ZM373.525 255.773H376.61V268.062C376.61 268.477 376.673 268.795 376.798 269.017C376.928 269.233 377.099 269.381 377.309 269.46C377.519 269.54 377.752 269.58 378.008 269.58C378.201 269.58 378.377 269.565 378.536 269.537C378.701 269.509 378.826 269.483 378.911 269.46L379.431 271.872C379.266 271.929 379.031 271.991 378.724 272.06C378.423 272.128 378.053 272.168 377.616 272.179C376.843 272.202 376.147 272.085 375.528 271.83C374.908 271.568 374.417 271.165 374.053 270.619C373.695 270.074 373.519 269.392 373.525 268.574V255.773ZM387.428 272.256C386.115 272.256 384.982 271.983 384.027 271.438C383.078 270.886 382.348 270.108 381.837 269.102C381.325 268.091 381.07 266.901 381.07 265.531C381.07 264.185 381.325 263.003 381.837 261.986C382.354 260.963 383.075 260.168 384.001 259.599C384.928 259.026 386.016 258.739 387.266 258.739C388.072 258.739 388.834 258.869 389.55 259.131C390.271 259.386 390.908 259.784 391.459 260.324C392.016 260.864 392.453 261.551 392.771 262.386C393.089 263.216 393.249 264.205 393.249 265.352V266.298H382.518V264.219H390.291C390.286 263.628 390.158 263.102 389.908 262.642C389.658 262.176 389.308 261.81 388.859 261.543C388.416 261.276 387.899 261.142 387.308 261.142C386.678 261.142 386.124 261.295 385.646 261.602C385.169 261.903 384.797 262.301 384.53 262.795C384.268 263.284 384.135 263.821 384.129 264.406V266.222C384.129 266.983 384.268 267.636 384.547 268.182C384.825 268.722 385.214 269.136 385.714 269.426C386.214 269.71 386.8 269.852 387.47 269.852C387.919 269.852 388.325 269.79 388.689 269.665C389.053 269.534 389.368 269.344 389.635 269.094C389.902 268.844 390.104 268.534 390.24 268.165L393.121 268.489C392.939 269.25 392.592 269.915 392.081 270.483C391.575 271.045 390.928 271.483 390.138 271.795C389.348 272.102 388.445 272.256 387.428 272.256ZM395.859 272V258.909H398.808V261.134H398.961C399.234 260.384 399.685 259.798 400.316 259.378C400.947 258.952 401.7 258.739 402.575 258.739C403.461 258.739 404.208 258.955 404.816 259.386C405.43 259.812 405.862 260.395 406.112 261.134H406.248C406.538 260.406 407.026 259.827 407.714 259.395C408.407 258.957 409.228 258.739 410.177 258.739C411.381 258.739 412.364 259.119 413.126 259.881C413.887 260.642 414.268 261.753 414.268 263.213V272H411.174V263.69C411.174 262.878 410.958 262.284 410.526 261.909C410.094 261.528 409.566 261.338 408.941 261.338C408.197 261.338 407.614 261.571 407.194 262.037C406.779 262.497 406.572 263.097 406.572 263.835V272H403.546V263.562C403.546 262.886 403.342 262.347 402.933 261.943C402.529 261.54 402.001 261.338 401.347 261.338C400.904 261.338 400.501 261.452 400.137 261.679C399.773 261.901 399.484 262.216 399.268 262.625C399.052 263.028 398.944 263.5 398.944 264.04V272H395.859ZM431.695 266.494V258.909H434.78V272H431.788V269.673H431.652C431.357 270.406 430.871 271.006 430.195 271.472C429.524 271.937 428.697 272.17 427.714 272.17C426.857 272.17 426.098 271.98 425.439 271.599C424.786 271.213 424.274 270.653 423.905 269.92C423.536 269.182 423.351 268.29 423.351 267.244V258.909H426.436V266.767C426.436 267.597 426.663 268.256 427.118 268.744C427.572 269.233 428.169 269.477 428.908 269.477C429.362 269.477 429.803 269.366 430.229 269.145C430.655 268.923 431.004 268.594 431.277 268.156C431.555 267.713 431.695 267.159 431.695 266.494ZM437.952 272V258.909H440.901V261.134H441.055C441.327 260.384 441.779 259.798 442.41 259.378C443.04 258.952 443.793 258.739 444.668 258.739C445.555 258.739 446.302 258.955 446.91 259.386C447.523 259.812 447.955 260.395 448.205 261.134H448.342C448.631 260.406 449.12 259.827 449.808 259.395C450.501 258.957 451.322 258.739 452.271 258.739C453.475 258.739 454.458 259.119 455.219 259.881C455.981 260.642 456.362 261.753 456.362 263.213V272H453.268V263.69C453.268 262.878 453.052 262.284 452.62 261.909C452.188 261.528 451.66 261.338 451.035 261.338C450.29 261.338 449.708 261.571 449.288 262.037C448.873 262.497 448.665 263.097 448.665 263.835V272H445.64V263.562C445.64 262.886 445.435 262.347 445.026 261.943C444.623 261.54 444.094 261.338 443.441 261.338C442.998 261.338 442.594 261.452 442.231 261.679C441.867 261.901 441.577 262.216 441.362 262.625C441.146 263.028 441.038 263.5 441.038 264.04V272H437.952ZM463.259 272.264C462.429 272.264 461.682 272.116 461.017 271.821C460.358 271.52 459.835 271.077 459.449 270.491C459.068 269.906 458.878 269.185 458.878 268.327C458.878 267.588 459.014 266.977 459.287 266.494C459.56 266.011 459.932 265.625 460.403 265.335C460.875 265.045 461.406 264.827 461.997 264.679C462.594 264.526 463.21 264.415 463.847 264.347C464.614 264.267 465.236 264.196 465.713 264.134C466.19 264.065 466.537 263.963 466.753 263.827C466.974 263.685 467.085 263.466 467.085 263.17V263.119C467.085 262.477 466.895 261.98 466.514 261.628C466.134 261.276 465.585 261.099 464.869 261.099C464.114 261.099 463.514 261.264 463.071 261.594C462.634 261.923 462.338 262.312 462.185 262.761L459.304 262.352C459.531 261.557 459.906 260.892 460.429 260.358C460.952 259.818 461.591 259.415 462.347 259.148C463.102 258.875 463.938 258.739 464.852 258.739C465.483 258.739 466.111 258.812 466.736 258.96C467.361 259.108 467.932 259.352 468.449 259.693C468.966 260.028 469.381 260.486 469.693 261.065C470.011 261.645 470.17 262.369 470.17 263.239V272H467.205V270.202H467.102C466.915 270.565 466.651 270.906 466.31 271.224C465.974 271.537 465.551 271.79 465.04 271.983C464.534 272.17 463.94 272.264 463.259 272.264ZM464.06 269.997C464.679 269.997 465.216 269.875 465.67 269.631C466.125 269.381 466.474 269.051 466.719 268.642C466.969 268.233 467.094 267.787 467.094 267.304V265.761C466.997 265.841 466.832 265.915 466.599 265.983C466.372 266.051 466.116 266.111 465.832 266.162C465.548 266.213 465.267 266.259 464.989 266.298C464.71 266.338 464.469 266.372 464.264 266.401C463.804 266.463 463.392 266.565 463.028 266.707C462.665 266.849 462.378 267.048 462.168 267.304C461.957 267.554 461.852 267.878 461.852 268.276C461.852 268.844 462.06 269.273 462.474 269.562C462.889 269.852 463.418 269.997 464.06 269.997ZM479.226 272V258.909H482.217V261.091H482.354C482.592 260.335 483.001 259.753 483.581 259.344C484.166 258.929 484.834 258.722 485.584 258.722C485.754 258.722 485.945 258.73 486.155 258.747C486.371 258.759 486.55 258.778 486.692 258.807V261.645C486.561 261.599 486.354 261.56 486.07 261.526C485.791 261.486 485.521 261.466 485.26 261.466C484.697 261.466 484.192 261.588 483.743 261.832C483.3 262.071 482.95 262.403 482.695 262.83C482.439 263.256 482.311 263.747 482.311 264.304V272H479.226ZM493.998 272.256C492.685 272.256 491.552 271.983 490.597 271.438C489.648 270.886 488.918 270.108 488.407 269.102C487.896 268.091 487.64 266.901 487.64 265.531C487.64 264.185 487.896 263.003 488.407 261.986C488.924 260.963 489.646 260.168 490.572 259.599C491.498 259.026 492.586 258.739 493.836 258.739C494.643 258.739 495.404 258.869 496.12 259.131C496.842 259.386 497.478 259.784 498.029 260.324C498.586 260.864 499.023 261.551 499.342 262.386C499.66 263.216 499.819 264.205 499.819 265.352V266.298H489.089V264.219H496.862C496.856 263.628 496.728 263.102 496.478 262.642C496.228 262.176 495.879 261.81 495.43 261.543C494.987 261.276 494.469 261.142 493.879 261.142C493.248 261.142 492.694 261.295 492.217 261.602C491.739 261.903 491.367 262.301 491.1 262.795C490.839 263.284 490.705 263.821 490.7 264.406V266.222C490.7 266.983 490.839 267.636 491.117 268.182C491.396 268.722 491.785 269.136 492.285 269.426C492.785 269.71 493.37 269.852 494.04 269.852C494.489 269.852 494.896 269.79 495.259 269.665C495.623 269.534 495.938 269.344 496.205 269.094C496.472 268.844 496.674 268.534 496.81 268.165L499.691 268.489C499.509 269.25 499.163 269.915 498.651 270.483C498.146 271.045 497.498 271.483 496.708 271.795C495.918 272.102 495.015 272.256 493.998 272.256ZM508.139 272.256C506.832 272.256 505.71 271.969 504.773 271.395C503.841 270.821 503.122 270.028 502.616 269.017C502.116 268 501.866 266.83 501.866 265.506C501.866 264.176 502.122 263.003 502.634 261.986C503.145 260.963 503.866 260.168 504.798 259.599C505.736 259.026 506.844 258.739 508.122 258.739C509.185 258.739 510.125 258.935 510.943 259.327C511.767 259.713 512.423 260.261 512.912 260.972C513.401 261.676 513.679 262.5 513.747 263.443H510.798C510.679 262.812 510.395 262.287 509.946 261.866C509.503 261.44 508.909 261.227 508.165 261.227C507.534 261.227 506.98 261.398 506.503 261.739C506.026 262.074 505.653 262.557 505.386 263.188C505.125 263.818 504.994 264.574 504.994 265.455C504.994 266.347 505.125 267.114 505.386 267.756C505.648 268.392 506.014 268.884 506.486 269.23C506.963 269.571 507.523 269.741 508.165 269.741C508.619 269.741 509.026 269.656 509.384 269.486C509.747 269.31 510.051 269.057 510.295 268.727C510.54 268.398 510.707 267.997 510.798 267.526H513.747C513.673 268.452 513.401 269.273 512.929 269.989C512.457 270.699 511.815 271.256 511.003 271.659C510.19 272.057 509.236 272.256 508.139 272.256ZM522.076 272.256C520.763 272.256 519.63 271.983 518.675 271.438C517.727 270.886 516.996 270.108 516.485 269.102C515.974 268.091 515.718 266.901 515.718 265.531C515.718 264.185 515.974 263.003 516.485 261.986C517.002 260.963 517.724 260.168 518.65 259.599C519.576 259.026 520.664 258.739 521.914 258.739C522.721 258.739 523.482 258.869 524.198 259.131C524.92 259.386 525.556 259.784 526.107 260.324C526.664 260.864 527.102 261.551 527.42 262.386C527.738 263.216 527.897 264.205 527.897 265.352V266.298H517.167V264.219H524.94C524.934 263.628 524.806 263.102 524.556 262.642C524.306 262.176 523.957 261.81 523.508 261.543C523.065 261.276 522.548 261.142 521.957 261.142C521.326 261.142 520.772 261.295 520.295 261.602C519.817 261.903 519.445 262.301 519.178 262.795C518.917 263.284 518.783 263.821 518.778 264.406V266.222C518.778 266.983 518.917 267.636 519.195 268.182C519.474 268.722 519.863 269.136 520.363 269.426C520.863 269.71 521.448 269.852 522.119 269.852C522.567 269.852 522.974 269.79 523.337 269.665C523.701 269.534 524.016 269.344 524.283 269.094C524.55 268.844 524.752 268.534 524.888 268.165L527.769 268.489C527.587 269.25 527.241 269.915 526.729 270.483C526.224 271.045 525.576 271.483 524.786 271.795C523.996 272.102 523.093 272.256 522.076 272.256ZM530.507 272V258.909H533.592V272H530.507ZM532.058 257.051C531.57 257.051 531.149 256.889 530.797 256.565C530.445 256.236 530.268 255.841 530.268 255.381C530.268 254.915 530.445 254.52 530.797 254.196C531.149 253.866 531.57 253.702 532.058 253.702C532.553 253.702 532.973 253.866 533.32 254.196C533.672 254.52 533.848 254.915 533.848 255.381C533.848 255.841 533.672 256.236 533.32 256.565C532.973 256.889 532.553 257.051 532.058 257.051ZM543.302 258.909V261.295H535.776V258.909H543.302ZM537.634 255.773H540.719V268.062C540.719 268.477 540.782 268.795 540.907 269.017C541.038 269.233 541.208 269.381 541.418 269.46C541.629 269.54 541.862 269.58 542.117 269.58C542.31 269.58 542.487 269.565 542.646 269.537C542.81 269.509 542.935 269.483 543.021 269.46L543.54 271.872C543.376 271.929 543.14 271.991 542.833 272.06C542.532 272.128 542.163 272.168 541.725 272.179C540.952 272.202 540.256 272.085 539.637 271.83C539.018 271.568 538.526 271.165 538.163 270.619C537.805 270.074 537.629 269.392 537.634 268.574V255.773ZM549.649 272.264C548.82 272.264 548.072 272.116 547.408 271.821C546.749 271.52 546.226 271.077 545.839 270.491C545.459 269.906 545.268 269.185 545.268 268.327C545.268 267.588 545.405 266.977 545.678 266.494C545.95 266.011 546.322 265.625 546.794 265.335C547.266 265.045 547.797 264.827 548.388 264.679C548.984 264.526 549.601 264.415 550.237 264.347C551.004 264.267 551.626 264.196 552.104 264.134C552.581 264.065 552.928 263.963 553.143 263.827C553.365 263.685 553.476 263.466 553.476 263.17V263.119C553.476 262.477 553.286 261.98 552.905 261.628C552.524 261.276 551.976 261.099 551.26 261.099C550.504 261.099 549.905 261.264 549.462 261.594C549.024 261.923 548.729 262.312 548.575 262.761L545.695 262.352C545.922 261.557 546.297 260.892 546.82 260.358C547.342 259.818 547.982 259.415 548.737 259.148C549.493 258.875 550.328 258.739 551.243 258.739C551.874 258.739 552.501 258.812 553.126 258.96C553.751 259.108 554.322 259.352 554.839 259.693C555.357 260.028 555.771 260.486 556.084 261.065C556.402 261.645 556.561 262.369 556.561 263.239V272H553.595V270.202H553.493C553.305 270.565 553.041 270.906 552.7 271.224C552.365 271.537 551.942 271.79 551.43 271.983C550.925 272.17 550.331 272.264 549.649 272.264ZM550.45 269.997C551.07 269.997 551.607 269.875 552.061 269.631C552.516 269.381 552.865 269.051 553.109 268.642C553.359 268.233 553.484 267.787 553.484 267.304V265.761C553.388 265.841 553.223 265.915 552.99 265.983C552.763 266.051 552.507 266.111 552.223 266.162C551.939 266.213 551.658 266.259 551.379 266.298C551.101 266.338 550.859 266.372 550.655 266.401C550.195 266.463 549.783 266.565 549.419 266.707C549.055 266.849 548.768 267.048 548.558 267.304C548.348 267.554 548.243 267.878 548.243 268.276C548.243 268.844 548.45 269.273 548.865 269.562C549.28 269.852 549.808 269.997 550.45 269.997Z" fill="black"/>
</svg>
